<?xml version="1.0" encoding="utf-8"?>
<!-- Generator: Adobe Illustrator 27.0.0, SVG Export Plug-In . SVG Version: 6.00 Build 0)  -->
<svg version="1.1" xmlns="http://www.w3.org/2000/svg" xmlns:xlink="http://www.w3.org/1999/xlink" x="0px" y="0px"
	 viewBox="0 0 181 87.8" style="enable-background:new 0 0 181 87.8;" xml:space="preserve">
<style type="text/css">
	.st0{fill:none;stroke:#1D1D1B;stroke-width:1.2595;}
</style>
<g id="Layer_1">
	<g>
		<g>
			<g>
				<polygon points="127.4,28.8 118.3,28.8 118.3,22.2 115.2,22.2 115.2,38.3 118.3,38.3 118.3,31.7 127.4,31.7 127.4,38.3 
					130.4,38.3 130.4,22.2 127.4,22.2 				"/>
				<rect x="133.7" y="26.7" width="2.9" height="11.6"/>
				<path d="M135.2,25.7c0.5,0,0.9-0.2,1.3-0.6c0.4-0.4,0.5-0.8,0.5-1.3c0-0.5-0.2-1-0.5-1.3c-0.4-0.4-0.8-0.6-1.3-0.6
					c-0.5,0-1,0.2-1.3,0.5c-0.4,0.4-0.5,0.8-0.5,1.3c0,0.5,0.2,1,0.5,1.4C134.2,25.5,134.6,25.7,135.2,25.7z"/>
				<rect x="139.6" y="22.2" width="2.9" height="16.1"/>
				<path d="M149.9,31.2l-1.1-0.5c-0.5-0.2-0.8-0.4-0.9-0.5c-0.1-0.1-0.2-0.3-0.2-0.4c0-0.2,0.1-0.4,0.3-0.5
					c0.2-0.1,0.4-0.2,0.8-0.2c0.6,0,1.3,0.4,2,1.1l1.8-1.8c-0.5-0.6-1-1.1-1.7-1.4c-0.7-0.3-1.4-0.5-2.1-0.5c-1.1,0-2,0.3-2.7,1
					c-0.7,0.7-1.1,1.4-1.1,2.4c0,1.4,0.9,2.6,2.8,3.6l1,0.5c0.8,0.4,1.3,0.9,1.3,1.3c0,0.2-0.1,0.5-0.4,0.6
					c-0.2,0.2-0.5,0.3-0.9,0.3c-0.4,0-0.8-0.1-1.2-0.4c-0.5-0.2-0.9-0.6-1.2-1l-1.8,2c1,1.3,2.4,2,4.1,2c1.3,0,2.3-0.3,3.1-1
					c0.8-0.7,1.1-1.6,1.1-2.6c0-0.8-0.2-1.5-0.6-2C151.8,32.4,151.1,31.8,149.9,31.2z"/>
				<path d="M163.2,27.2c-1-0.5-2-0.8-3.1-0.8c-1.5,0-2.9,0.5-4,1.6c-1.3,1.2-2,2.7-2,4.6c0,1.7,0.6,3.1,1.8,4.3
					c1.2,1.2,2.6,1.8,4.3,1.8c1.1,0,2.2-0.3,3.1-0.8c0.9-0.5,1.7-1.3,2.2-2.2c0.5-1,0.8-2,0.8-3.1c0-1.1-0.3-2.1-0.8-3.1
					C165,28.5,164.2,27.7,163.2,27.2z M162.5,34.9c-0.6,0.6-1.4,1-2.3,1c-0.9,0-1.7-0.3-2.3-0.9c-0.6-0.6-0.9-1.4-0.9-2.5
					c0-1,0.3-1.8,0.9-2.4s1.4-0.9,2.3-0.9c0.9,0,1.7,0.3,2.3,0.9c0.6,0.6,0.9,1.4,0.9,2.4C163.4,33.5,163.1,34.3,162.5,34.9z"/>
				<path d="M177.8,27.6c-0.8-0.8-1.8-1.2-2.9-1.2c-0.6,0-1.1,0.1-1.7,0.3c-0.5,0.2-1.1,0.6-1.8,1.2v-1.2h-2.9v11.6h2.9v-4.7
					c0-1.2,0-2,0.1-2.4c0.2-0.7,0.5-1.2,0.9-1.6c0.4-0.4,0.9-0.6,1.5-0.6c0.5,0,0.8,0.1,1.1,0.4c0.3,0.2,0.5,0.6,0.7,1
					c0.1,0.5,0.2,1.4,0.2,2.8v5.1h2.9v-7.7C178.8,29.3,178.5,28.3,177.8,27.6z"/>
				<polygon points="123.1,58.1 118.9,48.8 115.9,48.8 115.9,64.6 118.5,64.6 118.5,54.6 123.2,64.6 127.8,54.6 127.8,64.6 
					130.4,64.6 130.4,48.8 127.4,48.8 				"/>
				<path d="M141.6,53.5c-1-0.5-2-0.8-3.1-0.8c-1.5,0-2.9,0.5-4,1.6c-1.3,1.2-2,2.7-2,4.6c0,1.7,0.6,3.1,1.8,4.3
					c1.2,1.2,2.6,1.8,4.3,1.8c1.1,0,2.2-0.3,3.1-0.8c0.9-0.5,1.7-1.3,2.2-2.2c0.5-1,0.8-2,0.8-3.1c0-1.1-0.3-2.1-0.8-3.1
					C143.4,54.8,142.6,54,141.6,53.5z M140.9,61.2c-0.6,0.6-1.4,1-2.3,1c-0.9,0-1.7-0.3-2.3-0.9c-0.6-0.6-0.9-1.4-0.9-2.5
					c0-1,0.3-1.8,0.9-2.4c0.6-0.6,1.4-0.9,2.3-0.9c0.9,0,1.7,0.3,2.3,0.9c0.6,0.6,0.9,1.4,0.9,2.4C141.8,59.8,141.5,60.6,140.9,61.2
					z"/>
				<path d="M150.2,53.1c-0.4,0.3-0.8,0.7-1.1,1.3v-1.5h-2.5v11.6h2.9v-4.7l0-0.6c0-1.6,0.2-2.7,0.5-3.3c0.3-0.6,0.7-0.8,1.1-0.8
					c0.2,0,0.5,0.1,0.8,0.3l0.9-2.5c-0.4-0.2-0.8-0.3-1.2-0.3C151.2,52.6,150.7,52.8,150.2,53.1z"/>
				<path d="M162.9,54.2c-0.5-0.5-1.1-0.9-1.7-1.2c-0.6-0.3-1.3-0.4-2-0.4c-1.5,0-2.8,0.6-3.9,1.7c-1.1,1.1-1.6,2.6-1.6,4.4
					c0,1.7,0.5,3.2,1.6,4.4c1.1,1.2,2.4,1.8,3.9,1.8c0.7,0,1.3-0.1,1.9-0.4c0.6-0.2,1.1-0.6,1.7-1.2v1.2h2.9V52.9h-2.9V54.2z
					 M162.1,61.3c-0.6,0.6-1.4,1-2.3,1c-0.9,0-1.6-0.3-2.2-1c-0.6-0.6-0.9-1.5-0.9-2.5c0-1,0.3-1.8,0.9-2.5c0.6-0.6,1.3-1,2.3-1
					c0.9,0,1.7,0.3,2.3,0.9c0.6,0.6,0.9,1.4,0.9,2.5C163,59.8,162.7,60.6,162.1,61.3z"/>
				<path d="M174.9,52.6c-0.6,0-1.1,0.1-1.7,0.3c-0.5,0.2-1.1,0.6-1.8,1.2v-1.2h-2.9v11.6h2.9v-4.7c0-1.2,0-2,0.1-2.4
					c0.2-0.7,0.5-1.2,0.9-1.6c0.4-0.4,0.9-0.6,1.5-0.6c0.5,0,0.8,0.1,1.1,0.4c0.3,0.2,0.5,0.6,0.7,1c0.1,0.5,0.2,1.4,0.2,2.8v5.1
					h2.9v-7.7c0-1.3-0.3-2.4-1-3C177,53,176,52.6,174.9,52.6z"/>
			</g>
		</g>
		<g>
			<g>
				<polygon points="32.9,64.6 32.9,46 6.3,46 6.3,64.6 0,64.6 0,22.2 6.3,22.2 6.3,41.2 32.9,41.3 32.9,22.2 39.2,22.2 39.2,64.6 
									"/>
				<line class="st0" x1="51.7" y1="0" x2="51.7" y2="86.8"/>
				<polygon points="64.2,22.2 68.8,22.2 83.8,51.3 98.8,22.2 103.5,22.2 103.5,64.6 97.2,64.6 97.2,37.4 83.8,63.5 70.5,37.4 
					70.5,64.6 64.2,64.6 				"/>
			</g>
		</g>
	</g>
	<g>
		<path d="M66.1,80.3v0.6c0.2-0.2,0.5-0.4,0.8-0.5c0.3-0.1,0.6-0.2,0.9-0.2c0.7,0,1.3,0.3,1.8,0.8c0.5,0.5,0.7,1.2,0.7,2
			c0,0.8-0.3,1.5-0.8,2c-0.5,0.5-1.1,0.8-1.8,0.8c-0.3,0-0.6-0.1-0.9-0.2c-0.3-0.1-0.5-0.3-0.8-0.5v2.5h-1.3v-7.3H66.1z M67.5,81.4
			c-0.4,0-0.8,0.1-1.1,0.4C66.2,82.2,66,82.5,66,83c0,0.5,0.1,0.9,0.4,1.2c0.3,0.3,0.6,0.4,1.1,0.4c0.4,0,0.8-0.1,1-0.4
			c0.3-0.3,0.4-0.7,0.4-1.1c0-0.5-0.1-0.8-0.4-1.1C68.3,81.6,67.9,81.4,67.5,81.4z"/>
		<path d="M75.4,80.3h1.3v5.4h-1.3v-0.6c-0.3,0.3-0.5,0.4-0.8,0.5c-0.3,0.1-0.6,0.2-0.9,0.2c-0.7,0-1.3-0.3-1.8-0.8
			c-0.5-0.5-0.8-1.2-0.8-2c0-0.8,0.2-1.5,0.7-2c0.5-0.5,1.1-0.8,1.8-0.8c0.3,0,0.6,0.1,0.9,0.2c0.3,0.1,0.5,0.3,0.8,0.5V80.3z
			 M74,81.4c-0.4,0-0.8,0.1-1,0.4c-0.3,0.3-0.4,0.7-0.4,1.1c0,0.5,0.1,0.8,0.4,1.1c0.3,0.3,0.6,0.4,1,0.4c0.4,0,0.8-0.1,1.1-0.4
			s0.4-0.7,0.4-1.2c0-0.5-0.1-0.8-0.4-1.1C74.8,81.6,74.4,81.4,74,81.4z"/>
		<path d="M77.8,80.3H79V81c0.1-0.3,0.3-0.5,0.5-0.6c0.2-0.1,0.4-0.2,0.7-0.2c0.2,0,0.4,0,0.5,0.1l-0.4,1.2
			c-0.2-0.1-0.3-0.1-0.4-0.1c-0.2,0-0.4,0.1-0.5,0.4c-0.1,0.3-0.2,0.8-0.2,1.5l0,0.3v2.2h-1.3V80.3z"/>
		<path d="M81.5,78.3h1.3v2h0.8v1.2h-0.8v4.2h-1.3v-4.2h-0.7v-1.2h0.7V78.3z"/>
		<path d="M89.8,80.2c0.5,0,1,0.1,1.4,0.4c0.4,0.3,0.8,0.6,1,1c0.3,0.4,0.4,0.9,0.4,1.4c0,0.5-0.1,1-0.4,1.4c-0.3,0.4-0.6,0.8-1,1
			c-0.4,0.2-0.9,0.4-1.4,0.4c-0.8,0-1.4-0.3-2-0.8c-0.5-0.5-0.8-1.2-0.8-2c0-0.8,0.3-1.5,0.9-2.1C88.4,80.4,89.1,80.2,89.8,80.2z
			 M89.8,81.5c-0.4,0-0.8,0.1-1,0.4c-0.3,0.3-0.4,0.7-0.4,1.1c0,0.5,0.1,0.8,0.4,1.1c0.3,0.3,0.6,0.4,1,0.4c0.4,0,0.8-0.1,1.1-0.4
			c0.3-0.3,0.4-0.7,0.4-1.1c0-0.5-0.1-0.8-0.4-1.1C90.6,81.6,90.2,81.5,89.8,81.5z"/>
		<path d="M93.1,80.3h0.5c0-0.7,0-1.1,0-1.3c0-0.3,0.2-0.5,0.4-0.7c0.2-0.2,0.5-0.3,0.9-0.3c0.3,0,0.6,0.1,0.9,0.2v1
			c-0.2-0.1-0.4-0.1-0.5-0.1c-0.2,0-0.3,0-0.3,0.1c-0.1,0-0.1,0.2-0.1,0.3l0,0.7h0.9v1.1h-0.9v4.2h-1.3v-4.2h-0.5V80.3z"/>
		<path d="M99.5,78.3h1.3v2h0.8v1.2h-0.8v4.2h-1.3v-4.2h-0.7v-1.2h0.7V78.3z"/>
		<path d="M102.4,78.2h1.3v2.6c0.3-0.2,0.5-0.4,0.8-0.5c0.3-0.1,0.5-0.2,0.8-0.2c0.5,0,1,0.2,1.3,0.6c0.3,0.3,0.5,0.8,0.5,1.4v3.6
			h-1.3v-2.4c0-0.6,0-1-0.1-1.3c-0.1-0.2-0.2-0.4-0.3-0.5c-0.1-0.1-0.3-0.2-0.5-0.2c-0.3,0-0.5,0.1-0.7,0.3
			c-0.2,0.2-0.3,0.4-0.4,0.7c0,0.2-0.1,0.5-0.1,1.1v2.2h-1.3V78.2z"/>
		<path d="M113.9,83.4h-4.3c0.1,0.4,0.2,0.7,0.5,0.9c0.3,0.2,0.6,0.3,1,0.3c0.5,0,0.9-0.2,1.3-0.5l1.1,0.5c-0.3,0.4-0.6,0.7-1,0.9
			c-0.4,0.2-0.9,0.3-1.4,0.3c-0.8,0-1.5-0.3-2.1-0.8c-0.5-0.5-0.8-1.2-0.8-2c0-0.8,0.3-1.5,0.8-2c0.5-0.5,1.2-0.8,2-0.8
			c0.8,0,1.5,0.3,2.1,0.8c0.5,0.5,0.8,1.3,0.8,2.1L113.9,83.4z M112.5,82.3c-0.1-0.3-0.3-0.5-0.5-0.7c-0.3-0.2-0.6-0.3-0.9-0.3
			c-0.4,0-0.7,0.1-1,0.3c-0.2,0.1-0.3,0.4-0.5,0.7H112.5z"/>
		<path d="M117.2,78.4h4v1.4h-1.3v5.9h-1.4v-5.9h-1.3V78.4z"/>
		<path d="M121.5,80.3h1.4l1.4,3.4l1.5-3.4h1.4l-3.4,7.3h-1.4l1.1-2.4L121.5,80.3z"/>
		<path d="M127.6,80.3h1.2V81c0.1-0.3,0.3-0.5,0.5-0.6s0.4-0.2,0.7-0.2c0.2,0,0.4,0,0.5,0.1l-0.4,1.2c-0.2-0.1-0.3-0.1-0.4-0.1
			c-0.2,0-0.4,0.1-0.5,0.4c-0.1,0.3-0.2,0.8-0.2,1.5l0,0.3v2.2h-1.3V80.3z"/>
		<path d="M136.5,83.4h-4.3c0.1,0.4,0.2,0.7,0.5,0.9c0.3,0.2,0.6,0.3,1,0.3c0.5,0,0.9-0.2,1.3-0.5l1.1,0.5c-0.3,0.4-0.6,0.7-1,0.9
			c-0.4,0.2-0.9,0.3-1.4,0.3c-0.8,0-1.5-0.3-2.1-0.8c-0.5-0.5-0.8-1.2-0.8-2c0-0.8,0.3-1.5,0.8-2c0.5-0.5,1.2-0.8,2-0.8
			c0.8,0,1.5,0.3,2.1,0.8c0.5,0.5,0.8,1.3,0.8,2.1L136.5,83.4z M135.2,82.3c-0.1-0.3-0.3-0.5-0.5-0.7c-0.3-0.2-0.6-0.3-0.9-0.3
			c-0.4,0-0.7,0.1-1,0.3c-0.2,0.1-0.3,0.4-0.5,0.7H135.2z M133.9,77.4h1.6l-1.8,1.9h-1L133.9,77.4z"/>
		<path d="M137.6,80.3h1.3v0.6c0.3-0.3,0.6-0.4,0.8-0.5c0.2-0.1,0.5-0.2,0.8-0.2c0.5,0,1,0.2,1.4,0.6c0.3,0.3,0.5,0.8,0.5,1.4v3.6
			h-1.3v-2.4c0-0.6,0-1.1-0.1-1.3c-0.1-0.2-0.2-0.4-0.3-0.5c-0.1-0.1-0.3-0.2-0.5-0.2c-0.3,0-0.5,0.1-0.7,0.3
			c-0.2,0.2-0.3,0.4-0.4,0.8c0,0.2-0.1,0.5-0.1,1.1v2.2h-1.3V80.3z"/>
		<path d="M147,81.1l-0.8,0.8c-0.3-0.3-0.6-0.5-0.9-0.5c-0.2,0-0.3,0-0.4,0.1c-0.1,0.1-0.1,0.1-0.1,0.2c0,0.1,0,0.1,0.1,0.2
			c0.1,0.1,0.2,0.1,0.4,0.2l0.5,0.2c0.5,0.3,0.9,0.5,1.1,0.8c0.2,0.3,0.3,0.6,0.3,0.9c0,0.5-0.2,0.9-0.5,1.2
			c-0.4,0.3-0.8,0.5-1.4,0.5c-0.8,0-1.4-0.3-1.9-0.9l0.8-0.9c0.2,0.2,0.3,0.3,0.6,0.4c0.2,0.1,0.4,0.2,0.6,0.2c0.2,0,0.3,0,0.4-0.1
			c0.1-0.1,0.2-0.2,0.2-0.3c0-0.2-0.2-0.4-0.6-0.6l-0.5-0.2c-0.9-0.4-1.3-1-1.3-1.6c0-0.4,0.2-0.8,0.5-1.1c0.3-0.3,0.7-0.5,1.3-0.5
			c0.3,0,0.7,0.1,1,0.2C146.5,80.6,146.8,80.8,147,81.1z"/>
		<path d="M157.9,79.6l-1,1c-0.6-0.7-1.3-1-2.2-1c-0.7,0-1.3,0.2-1.8,0.7c-0.5,0.5-0.7,1.1-0.7,1.7c0,0.7,0.3,1.3,0.8,1.8
			c0.5,0.5,1.1,0.7,1.9,0.7c0.5,0,0.9-0.1,1.2-0.3c0.3-0.2,0.6-0.5,0.8-0.9h-2.1V82h3.7l0,0.3c0,0.6-0.2,1.2-0.5,1.8
			c-0.3,0.6-0.8,1-1.3,1.3c-0.5,0.3-1.1,0.4-1.8,0.4c-0.8,0-1.4-0.2-2-0.5c-0.6-0.3-1.1-0.8-1.4-1.4c-0.3-0.6-0.5-1.3-0.5-2
			c0-1,0.3-1.8,1-2.5c0.8-0.8,1.7-1.3,2.9-1.3c0.6,0,1.2,0.1,1.8,0.4C157,78.8,157.4,79.1,157.9,79.6z"/>
		<path d="M159.2,80.3h1.2V81c0.1-0.3,0.3-0.5,0.5-0.6s0.4-0.2,0.7-0.2c0.2,0,0.4,0,0.5,0.1l-0.4,1.2c-0.2-0.1-0.3-0.1-0.4-0.1
			c-0.2,0-0.4,0.1-0.5,0.4c-0.1,0.3-0.2,0.8-0.2,1.5l0,0.3v2.2h-1.3V80.3z"/>
		<path d="M165.3,80.2c0.5,0,1,0.1,1.4,0.4c0.4,0.3,0.8,0.6,1,1c0.3,0.4,0.4,0.9,0.4,1.4c0,0.5-0.1,1-0.4,1.4c-0.3,0.4-0.6,0.8-1,1
			c-0.4,0.2-0.9,0.4-1.4,0.4c-0.8,0-1.4-0.3-2-0.8c-0.5-0.5-0.8-1.2-0.8-2c0-0.8,0.3-1.5,0.9-2.1C163.9,80.4,164.6,80.2,165.3,80.2z
			 M165.3,81.5c-0.4,0-0.8,0.1-1,0.4c-0.3,0.3-0.4,0.7-0.4,1.1c0,0.5,0.1,0.8,0.4,1.1c0.3,0.3,0.6,0.4,1,0.4s0.8-0.1,1.1-0.4
			c0.3-0.3,0.4-0.7,0.4-1.1c0-0.5-0.1-0.8-0.4-1.1C166.1,81.6,165.7,81.5,165.3,81.5z"/>
		<path d="M169.2,80.3h1.4v2.6c0,0.5,0,0.9,0.1,1.1c0.1,0.2,0.2,0.3,0.3,0.5c0.2,0.1,0.3,0.2,0.6,0.2s0.4-0.1,0.6-0.2
			c0.2-0.1,0.3-0.3,0.3-0.5c0.1-0.2,0.1-0.5,0.1-1v-2.6h1.3v2.3c0,0.9-0.1,1.6-0.2,1.9c-0.2,0.4-0.4,0.7-0.8,1
			c-0.4,0.2-0.8,0.3-1.3,0.3c-0.6,0-1.1-0.1-1.4-0.4c-0.4-0.3-0.6-0.6-0.8-1.1c-0.1-0.3-0.2-0.9-0.2-1.8V80.3z"/>
		<path d="M176.6,80.3v0.6c0.2-0.2,0.5-0.4,0.8-0.5c0.3-0.1,0.6-0.2,0.9-0.2c0.7,0,1.3,0.3,1.8,0.8c0.5,0.5,0.7,1.2,0.7,2
			c0,0.8-0.3,1.5-0.8,2c-0.5,0.5-1.1,0.8-1.8,0.8c-0.3,0-0.6-0.1-0.9-0.2c-0.3-0.1-0.5-0.3-0.8-0.5v2.5h-1.3v-7.3H176.6z
			 M178.1,81.4c-0.4,0-0.8,0.1-1.1,0.4c-0.3,0.3-0.4,0.7-0.4,1.1c0,0.5,0.1,0.9,0.4,1.2c0.3,0.3,0.6,0.4,1.1,0.4
			c0.4,0,0.8-0.1,1-0.4c0.3-0.3,0.4-0.7,0.4-1.1c0-0.5-0.1-0.8-0.4-1.1C178.8,81.6,178.5,81.4,178.1,81.4z"/>
	</g>
</g>
<g id="Layer_2">
</g>
<g id="Layer_3">
</g>
</svg>
